<svg width="800" height="600" xmlns="http://www.w3.org/2000/svg">
  <!-- Background (off-road) -->
  <rect width="800" height="600" fill="#0a0a16"/>
  <!-- Road base (full height) -->
  <rect x="0" y="0" width="800" height="600" fill="#181828"/>
  <!-- Neon purple side glows -->
  <rect x="0" y="0" width="30" height="600" fill="#a259ff" fill-opacity="0.18"/>
  <rect x="770" y="0" width="30" height="600" fill="#a259ff" fill-opacity="0.18"/>
  <!-- Lane lines (neon yellow, dashed, thinner, more spaced) -->
  <line x1="0" y1="200" x2="800" y2="200" stroke="#ffe600" stroke-width="4" stroke-dasharray="60,40"/>
  <line x1="0" y1="400" x2="800" y2="400" stroke="#ffe600" stroke-width="4" stroke-dasharray="60,40"/>
  <!-- Lamp posts (left side, cyberpunk blue glow) -->
  <g>
    <rect x="50" y="120" width="8" height="60" fill="#222" />
    <circle cx="54" cy="120" r="10" fill="#00fff7" fill-opacity="0.7"/>
    <rect x="250" y="320" width="8" height="60" fill="#222" />
    <circle cx="254" cy="320" r="10" fill="#00fff7" fill-opacity="0.7"/>
    <rect x="600" y="220" width="8" height="60" fill="#222" />
    <circle cx="604" cy="220" r="10" fill="#00fff7" fill-opacity="0.7"/>
  </g>
  <!-- Trash cans (right side, magenta) -->
  <g>
    <rect x="730" y="170" width="18" height="28" fill="#ff2ec6" fill-opacity="0.7" rx="4"/>
    <rect x="730" y="370" width="18" height="28" fill="#ff2ec6" fill-opacity="0.7" rx="4"/>
    <rect x="730" y="520" width="18" height="28" fill="#ff2ec6" fill-opacity="0.7" rx="4"/>
    <!-- Trash can lids -->
    <rect x="728" y="166" width="22" height="6" fill="#fff" fill-opacity="0.5" rx="2"/>
    <rect x="728" y="366" width="22" height="6" fill="#fff" fill-opacity="0.5" rx="2"/>
    <rect x="728" y="516" width="22" height="6" fill="#fff" fill-opacity="0.5" rx="2"/>
  </g>
  <!-- Street texture (optional, can be removed for clarity) -->
  <rect x="120" y="180" width="30" height="8" fill="#2c2c44" fill-opacity="0.3"/>
  <rect x="320" y="320" width="50" height="10" fill="#2c2c44" fill-opacity="0.3"/>
  <rect x="600" y="500" width="40" height="7" fill="#2c2c44" fill-opacity="0.3"/>
  <rect x="500" y="250" width="25" height="6" fill="#2c2c44" fill-opacity="0.3"/>
  <rect x="200" y="400" width="35" height="9" fill="#2c2c44" fill-opacity="0.3"/>
</svg>